<svg id="Capa_1" data-name="Capa 1" xmlns="http://www.w3.org/2000/svg" viewBox="0 0 969.21 824.23"><defs><style>.cls-1{fill:#6ca9c1;}.cls-2{fill:#6da9c1;}.cls-3{fill:#6eaac1;}.cls-4{fill:#dc9b0a;}.cls-5{fill:#78a84a;}.cls-6{fill:#c85036;}</style></defs><path class="cls-1" d="M555.18,930.9q-231.7,0-463.42.19c-12.82,0-21.19-8.41-21.18-21.18Q71,519,70.58,128c0-12.77,8.36-21.19,21.18-21.18q463.42.36,926.84,0c12.83,0,21.2,8.42,21.19,21.18q-.37,390.93,0,781.87c0,12.77-8.36,21.21-21.19,21.18Q786.9,930.66,555.18,930.9Zm-.25-15h461.9c7.77,0,7.77,0,7.77-7.52V129.56c0-7.51,0-7.52-7.27-7.52H93c-7.27,0-7.28,0-7.28,7.52V908.38c0,7.52,0,7.52,7.78,7.52Z" transform="translate(-70.58 -106.86)"/><path class="cls-1" d="M416.38,208.07c37,0,74,.08,111-.1,4.39,0,5.6,1.06,5.55,5.51-.24,22.32-.11,44.66-.11,67,0,6.8,0,6.8-6.6,6.8q-97.49,0-195,0c-33,0-61.79,10.83-84.84,34.86-18.36,19.15-28.87,42.09-30.82,68.75-1.49,20.31-.51,40.63-.65,60.95-.2,29.32-.34,58.66,0,88,.34,26.74,12.95,46,37.48,56.89,13,5.75,26.56,6.12,40.05,1.85C326,588,359.4,577.17,392.84,566.45c18.86-6.05,37.69-12.22,56.61-18.07,3.27-1,4.52-2.23,4.5-5.77q-.24-35,0-70c0-3.55-1.13-4.51-4.57-4.48q-23.49.24-47,0c-3.51,0-4.6,1.14-4.57,4.61.15,15.5-.06,31,.16,46.49.06,4-1.12,5.07-5.05,5q-34.74-.27-69.49,0c-4.18,0-4.93-1.45-4.89-5.18.18-15-.13-30,.19-45,.11-5-1.56-6.1-6.24-6-15,.27-30,0-45,.17-3.46,0-5-.53-5-4.57q.28-35.23,0-70.48c0-3.6,1.18-4.48,4.58-4.44,15.33.15,30.66-.09,46,.16,4.27.07,5.73-.85,5.64-5.44-.32-15.32,0-30.66-.21-46,0-3.8,1.13-4.74,4.8-4.72q35,.22,70,0c3.93,0,4.68,1.35,4.63,4.91-.17,15.16.13,30.33-.19,45.49-.1,4.81,1.56,5.77,6,5.75,41-.15,82,0,123-.19,4.59,0,6.22.82,6.21,5.89q-.28,104.24-.06,208.47c0,3.61-.62,5.57-4.51,6.79-40.67,12.74-81.26,25.71-121.87,38.6-33,10.47-65.92,21.18-99,31.33-49.65,15.22-108-2.71-141.28-42.45-22.49-26.83-33.26-57.63-33.28-92.4,0-50.49-.31-101,.06-151.47.48-65.22,27.26-117.13,80.81-154.56,25-17.5,53.21-27.26,83.68-30,21.44-1.94,43-.56,64.43-.81C380.05,207.9,398.22,208.07,416.38,208.07Z" transform="translate(-70.58 -106.86)"/><path class="cls-2" d="M691.94,208.07c34.16,0,68.33-.69,102.47.15C863,209.91,914.93,241,950.3,299.51c17,28.14,24.31,59.2,24.28,92-.05,53.32.86,106.66-.31,160C973.14,602.42,949,640.92,905.38,667c-24.17,14.47-50.73,19.62-78.66,17.76-14.55-1-28.39-5.35-42.2-9.76q-102-32.54-204.14-64.87c-4.19-1.32-5.65-3.06-5.64-7.55q.22-104,0-207.94c0-4.42.92-6,5.7-5.91,24.32.26,48.65,0,73,.16,16.9.09,31,10,37.05,25.63a39.73,39.73,0,0,1-10.1,43.11c-6.39,6-14,9.7-22.75,10.33-2.94.21-4,1-4,4.1q.18,35.49,0,71c0,2.78.83,4.12,3.55,5Q727.6,570.46,798,593c6.5,2.08,12.95,4.36,19.55,6.07,38.26,9.87,74.9-18.05,75.13-57.61.27-47.65.35-95.3,0-142.95-.42-56.29-43.44-104-99-110.32a156.38,156.38,0,0,0-17.44-.93q-97.72-.09-195.44.07c-4.85,0-6.1-1.33-6-6.1.25-22.66.21-45.32,0-68,0-4.1,1-5.33,5.22-5.31C617.29,208.14,654.62,208.07,691.94,208.07Z" transform="translate(-70.58 -106.86)"/><path class="cls-3" d="M553.94,898.91c-48.92,0-92.5-29.12-108.68-74.27-14.1-39.33-6.66-75.7,20.64-107.1,24.81-28.53,57.22-41.18,94.76-39.39,51.93,2.48,95.06,38.52,106.26,86.17,10.5,44.71-9.89,92.81-50,116.82C596.77,893.24,576.6,898.93,553.94,898.91Zm3.08-15a105.58,105.58,0,0,0,52.4-15.78C661.29,836.47,669.93,765.75,627,722.8c-34.83-34.86-91.72-39.8-132-11.46-32.35,22.74-47.73,61.5-38.8,97.78C467.05,853.18,507.18,883.87,557,883.91Z" transform="translate(-70.58 -106.86)"/><path class="cls-4" d="M722.63,398.92a39.85,39.85,0,1,1,39.82-39.67A39.78,39.78,0,0,1,722.63,398.92Z" transform="translate(-70.58 -106.86)"/><path class="cls-5" d="M762.45,498a39.81,39.81,0,1,1-39.65-39.88A39.69,39.69,0,0,1,762.45,498Z" transform="translate(-70.58 -106.86)"/><path class="cls-6" d="M752.4,428.46a39.73,39.73,0,1,1,39.47,40A39.46,39.46,0,0,1,752.4,428.46Z" transform="translate(-70.58 -106.86)"/><path class="cls-3" d="M705.66,684.58c0,13-10,23.47-22.25,23.36s-21.87-10.8-21.74-23.88c.12-12.72,10-23.1,22-23.11C695.86,660.94,705.7,671.52,705.66,684.58Z" transform="translate(-70.58 -106.86)"/></svg>